<svg width="16" height="12" viewBox="0 0 16 12" fill="none" xmlns="http://www.w3.org/2000/svg">
<path d="M0.911458 0H15.0755C15.3176 0.00239639 15.5491 0.100085 15.7197 0.271905C15.8903 0.443725 15.9863 0.67584 15.987 0.917969V10.6523C15.9883 10.8381 15.9329 11.0198 15.8281 11.1732C15.8093 11.2223 15.78 11.2667 15.7422 11.3034C15.7168 11.3277 15.6878 11.3479 15.6563 11.3633C15.492 11.5019 15.284 11.578 15.069 11.5781H0.911458C0.67046 11.5758 0.440004 11.479 0.269585 11.3085C0.0991653 11.1381 0.00237454 10.9077 0 10.6667V0.917969C0.000673091 0.67584 0.0967124 0.443725 0.267314 0.271905C0.437915 0.100085 0.66934 0.00239639 0.911458 0ZM0.872396 10.2656L5.66146 5.28906L0.872396 1.24219V10.2656ZM6.38281 5.91016L1.26563 10.8659H14.6771L9.78776 5.91016L8.35547 7.10938C8.29236 7.16179 8.2129 7.19048 8.13086 7.19048C8.04882 7.19048 7.96936 7.16179 7.90625 7.10938L6.38281 5.91016ZM10.4974 5.27995L15.1146 10.306V1.19792L10.4974 5.27995ZM1.32292 0.704427L8.11719 6.21094L14.612 0.704427H1.32292Z" fill="white"/>
</svg>
