<svg width="16" height="16" viewBox="0 0 16 16" fill="none" xmlns="http://www.w3.org/2000/svg">
<path fill-rule="evenodd" clip-rule="evenodd" d="M7.9997 0.00270001C3.58233 0.00270001 0 3.58443 0 8.00238C0 11.5372 2.29195 14.5348 5.47065 15.5931C5.87075 15.6672 6.0178 15.4192 6.0178 15.2078C6.0178 15.017 6.00983 14.3869 6.00658 13.719C3.78078 14.203 3.31157 12.7747 3.31157 12.7747C2.94777 11.8499 2.42335 11.6039 2.42335 11.6039C1.69755 11.1069 2.47857 11.1179 2.47857 11.1179C3.28172 11.174 3.70458 11.9417 3.70458 11.9417C4.41858 13.1648 5.57665 12.8107 6.03285 12.6066C6.1049 12.0896 6.3116 11.7365 6.54073 11.5366C4.76372 11.3349 2.8958 10.6487 2.8958 7.58308C2.8958 6.70993 3.2088 5.99595 3.71992 5.43607C3.63667 5.23412 3.36265 4.42093 3.797 3.31922C3.797 3.31922 4.46875 3.10398 5.99773 4.13923C6.63552 3.96235 7.31968 3.87317 7.99913 3.87022C8.67913 3.87317 9.36448 3.96205 10.0032 4.13923C11.5301 3.10458 12.2012 3.31922 12.2012 3.31922C12.6362 4.42123 12.3634 5.235 12.2801 5.4361C12.793 5.99595 13.1033 6.70993 13.1033 7.58308C13.1033 10.6558 11.2312 11.3313 9.4504 11.5295C9.73742 11.7775 9.99372 12.2644 9.99372 13.0103C9.99372 14.0801 9.98458 14.9423 9.98458 15.2054C9.98458 15.4183 10.1287 15.6672 10.5344 15.5893C13.7113 14.5304 16.0003 11.5324 16.0003 7.9997C16.0003 3.58233 12.4186 0 8.0003 0L7.99973 0.00267501L7.9997 0.00270001Z" fill="white"/>
</svg>
