<svg width="24" height="24" viewBox="0 0 24 24" fill="none" xmlns="http://www.w3.org/2000/svg">
<path fill-rule="evenodd" clip-rule="evenodd" d="M11.9993 0.00415212C5.37339 0.00415212 0 5.5122 0 12.3062C0 17.7421 3.43786 22.3519 8.20582 23.9794C8.80596 24.0934 9.02653 23.7119 9.02653 23.3868C9.02653 23.0935 9.01457 22.1245 9.00969 21.0973C5.67106 21.8416 4.96727 19.6451 4.96727 19.6451C4.42158 18.2229 3.63496 17.8447 3.63496 17.8447C2.54628 17.0804 3.71779 17.0972 3.71779 17.0972C4.92249 17.1836 5.55676 18.3642 5.55676 18.3642C6.62774 20.245 8.36482 19.7005 9.0491 19.3867C9.15718 18.5917 9.46722 18.0486 9.8109 17.7412C7.14545 17.431 4.34362 16.3757 4.34362 11.6614C4.34362 10.3187 4.81311 9.22069 5.57978 8.3597C5.45491 8.04914 5.04388 6.79858 5.69539 5.10437C5.69539 5.10437 6.703 4.77335 8.99642 6.36538C9.9531 6.09338 10.9793 5.95624 11.9985 5.95171C13.0184 5.95624 14.0464 6.09292 15.0045 6.36538C17.2948 4.77428 18.3015 5.10437 18.3015 5.10437C18.9539 6.79904 18.5447 8.05048 18.4198 8.35974C19.1891 9.22069 19.6546 10.3187 19.6546 11.6614C19.6546 16.3866 16.8466 17.4255 14.1753 17.7302C14.6059 18.1117 14.9903 18.8605 14.9903 20.0075C14.9903 21.6526 14.9766 22.9786 14.9766 23.3832C14.9766 23.7106 15.1927 24.0934 15.8013 23.9734C20.5665 22.3451 24 17.7347 24 12.3021C24 5.50897 18.6275 0 12.0002 0L11.9994 0.00411368L11.9993 0.00415212Z" fill="#20D88B"/>
</svg>
