<svg width="16" height="17" viewBox="0 0 16 17" fill="none" xmlns="http://www.w3.org/2000/svg">
<path fill-rule="evenodd" clip-rule="evenodd" d="M13.6676 2.3368C12.1631 0.82915 10.162 1.31163e-10 8.0307 1.31163e-10C3.6402 -2.49999e-05 0.066725 3.57375 0.066725 7.9675C0.066725 9.37098 0.43435 10.7438 1.1309 11.9499L0 16.0794L4.22398 14.9709C5.38885 15.6055 6.6993 15.9418 8.02952 15.9418H8.03277C12.4236 15.9418 16 12.368 16 7.97458C16 5.84503 15.1708 3.8451 13.6664 2.338L13.6676 2.3368ZM8.03305 14.5974C6.84307 14.5974 5.6776 14.2767 4.66067 13.6735L4.41825 13.5288L1.91163 14.1852L2.58102 11.7421L2.42423 11.4911C1.75778 10.4387 1.40998 9.22065 1.40998 7.9678C1.40998 4.31575 4.38077 1.3438 8.03662 1.3438C9.80445 1.3438 11.4698 2.03505 12.7192 3.28435C13.9691 4.53753 14.6565 6.19905 14.6565 7.96985C14.6536 11.6245 11.6828 14.5965 8.0325 14.5965L8.03305 14.5974ZM11.6635 9.6358C11.4657 9.5351 10.4856 9.05498 10.3038 8.98855C10.1219 8.9221 9.98925 8.88785 9.85433 9.08922C9.72263 9.28708 9.33965 9.73648 9.22303 9.87085C9.10638 10.0029 8.99093 10.0217 8.7931 9.92105C8.59525 9.82035 7.95125 9.6104 7.1915 8.93185C6.60065 8.40447 6.19995 7.75133 6.0833 7.5535C5.96667 7.35565 6.0703 7.2458 6.1716 7.14867C6.26312 7.06007 6.36972 6.91658 6.47012 6.79993C6.57082 6.6833 6.60212 6.6018 6.66825 6.46718C6.7347 6.33518 6.70222 6.21852 6.65232 6.11842C6.60212 6.01805 6.2029 5.038 6.0402 4.6388C5.88045 4.24872 5.71362 4.30305 5.59107 4.29628C5.47445 4.29035 5.34245 4.29035 5.21107 4.29035C5.07965 4.29035 4.86233 4.34025 4.68045 4.53867C4.49855 4.73653 3.983 5.22017 3.983 6.19992C3.983 7.17995 4.6958 8.12515 4.7959 8.2601C4.89657 8.39178 6.19995 10.4047 8.19662 11.2661C8.67112 11.4701 9.0417 11.5926 9.3305 11.6874C9.80795 11.838 10.2411 11.8162 10.5836 11.7657C10.9667 11.7093 11.7615 11.2849 11.9284 10.8199C12.0949 10.3545 12.0949 9.95647 12.045 9.8741C11.9978 9.7855 11.866 9.7365 11.665 9.6346L11.6635 9.6358Z" fill="white"/>
</svg>
