<svg width="16" height="16" viewBox="0 0 16 16" fill="none" xmlns="http://www.w3.org/2000/svg">
<path fill-rule="evenodd" clip-rule="evenodd" d="M14.5 0H1.5C0.675 0 0 0.675 0 1.5V14.5C0 15.325 0.675 16 1.5 16H14.5C15.325 16 16 15.325 16 14.5V1.5C16 0.675 15.325 0 14.5 0ZM5.99977 13H4.00015V5.9998H5.99977V13ZM4.99968 4.99968C4.44693 4.99968 3.99985 4.55263 3.99985 3.99985C3.99985 3.4468 4.4469 2.99975 4.99968 2.99975C5.55272 2.99975 5.99977 3.4468 5.99977 3.99985C5.99977 4.5526 5.55272 4.99968 4.99968 4.99968ZM13 13H11.0003V9.00012C11.0003 8.44707 10.553 8.00003 10.0002 8.00003C9.44718 8.00003 9.00012 8.44707 9.00012 9.00012V13H6.99988V5.9998H9.00012V7.24085C9.41203 6.6745 10.0439 5.9998 10.7499 5.9998C11.9939 5.9998 12.9999 7.1189 12.9999 8.49993V13H13Z" fill="white"/>
</svg>
